<svg width="23" height="23" viewBox="0 0 23 23" fill="none" xmlns="http://www.w3.org/2000/svg">
<path d="M6.90205 23C6.26937 23 5.72794 22.775 5.27777 22.3249C4.82684 21.8741 4.60137 21.3325 4.60137 20.7C4.60137 20.0675 4.82684 19.5259 5.27777 19.0751C5.72794 18.625 6.26937 18.4 6.90205 18.4C7.53474 18.4 8.07617 18.625 8.52634 19.0751C8.97727 19.5259 9.20274 20.0675 9.20274 20.7C9.20274 21.3325 8.97727 21.8741 8.52634 22.3249C8.07617 22.775 7.53474 23 6.90205 23ZM18.4055 23C17.7728 23 17.2314 22.775 16.7812 22.3249C16.3303 21.8741 16.1048 21.3325 16.1048 20.7C16.1048 20.0675 16.3303 19.5259 16.7812 19.0751C17.2314 18.625 17.7728 18.4 18.4055 18.4C19.0382 18.4 19.58 18.625 20.0309 19.0751C20.4811 19.5259 20.7062 20.0675 20.7062 20.7C20.7062 21.3325 20.4811 21.8741 20.0309 22.3249C19.58 22.775 19.0382 23 18.4055 23ZM5.92426 4.6L8.68509 10.35H16.7375L19.9009 4.6H5.92426ZM6.90205 17.25C6.0393 17.25 5.38744 16.8713 4.94647 16.1138C4.50551 15.3571 4.48634 14.605 4.88896 13.8575L6.44192 11.04L2.30068 2.3H1.12158C0.795653 2.3 0.52724 2.1896 0.316344 1.9688C0.105448 1.74877 0 1.47583 0 1.15C0 0.824167 0.110433 0.55085 0.331299 0.33005C0.551397 0.110017 0.824412 0 1.15034 0H3.01965C3.23054 0 3.43185 0.0575001 3.62358 0.1725C3.8153 0.2875 3.9591 0.450417 4.05496 0.66125L4.83144 2.3H21.799C22.3166 2.3 22.6713 2.49167 22.8631 2.875C23.0548 3.25833 23.0452 3.66083 22.8343 4.0825L18.7506 11.4425C18.5397 11.8258 18.2617 12.1229 17.9166 12.3337C17.5715 12.5446 17.1784 12.65 16.7375 12.65H8.16743L6.90205 14.95H19.5846C19.9105 14.95 20.1789 15.06 20.3898 15.28C20.6007 15.5008 20.7062 15.7742 20.7062 16.1C20.7062 16.4258 20.5957 16.6988 20.3749 16.9188C20.1548 17.1396 19.8818 17.25 19.5558 17.25H6.90205ZM8.68509 10.35H16.7375H8.68509Z" fill="white"/>
</svg>
